<?xml version="1.0" encoding="UTF-8"?>
<svg xmlns="http://www.w3.org/2000/svg" xmlns:xlink="http://www.w3.org/1999/xlink" viewBox="0 0 64 64" width="64px" height="64px">
<defs>
<linearGradient id="linear0" gradientUnits="userSpaceOnUse" x1="86" y1="135.449997" x2="86" y2="36.549999" gradientTransform="matrix(0.372093,0,0,0.372093,0,0)">
<stop offset="0" style="stop-color:rgb(100%,100%,100%);stop-opacity:1;"/>
<stop offset="1" style="stop-color:rgb(50.196081%,50.196081%,50.196081%);stop-opacity:1;"/>
</linearGradient>
<linearGradient id="linear1" gradientUnits="userSpaceOnUse" x1="86" y1="82.79435" x2="86" y2="66.650002" gradientTransform="matrix(0.372093,0,0,0.372093,0,0)">
<stop offset="0" style="stop-color:rgb(100%,100%,100%);stop-opacity:1;"/>
<stop offset="1" style="stop-color:rgb(72.156864%,72.156864%,72.156864%);stop-opacity:1;"/>
</linearGradient>
</defs>
<g id="surface1465899">
<path style=" stroke:none;fill-rule:nonzero;fill:rgb(50.196081%,49.019608%,97.254902%);fill-opacity:1;" d="M 32 64 C 14.328125 64 0 49.671875 0 32 C 0 14.328125 14.328125 0 32 0 C 49.671875 0 64 14.328125 64 32 C 64 49.671875 49.671875 64 32 64 Z M 32 64 "/>
<path style=" stroke:none;fill-rule:nonzero;fill:url(#linear0);" d="M 46.398438 13.601562 L 17.601562 13.601562 C 15.359375 13.601562 13.601562 15.359375 13.601562 17.601562 L 13.601562 46.398438 C 13.601562 48.640625 15.359375 50.398438 17.601562 50.398438 L 46.398438 50.398438 C 48.640625 50.398438 50.398438 48.640625 50.398438 46.398438 L 50.398438 17.601562 C 50.398438 15.359375 48.640625 13.601562 46.398438 13.601562 Z M 48.800781 46.398438 C 48.800781 47.761719 47.761719 48.800781 46.398438 48.800781 L 17.601562 48.800781 C 16.238281 48.800781 15.199219 47.761719 15.199219 46.398438 L 15.199219 17.601562 C 15.199219 16.238281 16.238281 15.199219 17.601562 15.199219 L 46.398438 15.199219 C 47.761719 15.199219 48.800781 16.238281 48.800781 17.601562 Z M 42.398438 21.601562 L 21.601562 21.601562 C 20.277344 21.601562 19.199219 22.675781 19.199219 24 L 19.199219 40 C 19.199219 41.324219 20.277344 42.398438 21.601562 42.398438 L 42.398438 42.398438 C 43.722656 42.398438 44.800781 41.324219 44.800781 40 L 44.800781 24 C 44.800781 22.675781 43.722656 21.601562 42.398438 21.601562 Z M 42.296875 23.199219 L 33.132812 32.363281 C 32.589844 32.90625 31.640625 32.910156 31.09375 32.363281 L 21.929688 23.199219 Z M 20.800781 39.667969 L 20.800781 24.332031 L 28.46875 32 Z M 21.929688 40.800781 L 29.601562 33.132812 L 29.964844 33.496094 C 30.539062 34.070312 31.300781 34.386719 32.113281 34.386719 C 32.925781 34.386719 33.691406 34.070312 34.265625 33.496094 L 34.523438 33.238281 L 42.277344 40.800781 Z M 43.199219 39.464844 L 35.652344 32.105469 L 43.199219 24.558594 Z M 28 39.199219 L 36 39.199219 L 36 37.601562 L 28 37.601562 Z M 28 39.199219 "/>
<path style=" stroke:none;fill-rule:nonzero;fill:url(#linear1);" d="M 26.953125 24.800781 L 37.046875 24.800781 C 37.476562 24.800781 37.6875 25.316406 37.386719 25.621094 L 32.339844 30.667969 C 32.152344 30.855469 31.847656 30.855469 31.660156 30.667969 L 26.613281 25.621094 C 26.3125 25.316406 26.523438 24.800781 26.953125 24.800781 Z M 26.953125 24.800781 "/>
</g>
</svg>
