<?xml version="1.0" encoding="UTF-8"?>
<svg xmlns="http://www.w3.org/2000/svg" xmlns:xlink="http://www.w3.org/1999/xlink" viewBox="0 0 64 64" width="64px" height="64px">
<defs>
<linearGradient id="linear0" gradientUnits="userSpaceOnUse" x1="85.669441" y1="15.46119" x2="86.341309" y2="158.570557" gradientTransform="matrix(0.372093,0,0,0.372093,0,0)">
<stop offset="0" style="stop-color:rgb(50.196081%,49.019608%,97.254902%);stop-opacity:1;"/>
<stop offset="1" style="stop-color:rgb(43.921569%,15.686275%,89.411765%);stop-opacity:1;"/>
</linearGradient>
<linearGradient id="linear1" gradientUnits="userSpaceOnUse" x1="86" y1="26.875" x2="86" y2="143.904877" gradientTransform="matrix(0.372093,0,0,0.372093,0,0)">
<stop offset="0" style="stop-color:rgb(90.980393%,90.588236%,99.607843%);stop-opacity:1;"/>
<stop offset="1" style="stop-color:rgb(69.803923%,54.901963%,94.509804%);stop-opacity:1;"/>
</linearGradient>
</defs>
<g id="surface1482412">
<path style=" stroke:none;fill-rule:nonzero;fill:url(#linear0);" d="M 32 58 C 17.664062 58 6 46.335938 6 32 C 6 17.664062 17.664062 6 32 6 C 46.335938 6 58 17.664062 58 32 C 58 46.335938 46.335938 58 32 58 Z M 32 8 C 18.765625 8 8 18.765625 8 32 C 8 45.234375 18.765625 56 32 56 C 45.234375 56 56 45.234375 56 32 C 56 18.765625 45.234375 8 32 8 Z M 32 8 "/>
<path style=" stroke:none;fill-rule:nonzero;fill:url(#linear1);" d="M 32 54 C 19.867188 54 10 44.132812 10 32 C 10 19.867188 19.867188 10 32 10 C 44.132812 10 54 19.867188 54 32 C 54 44.132812 44.132812 54 32 54 Z M 32 12 C 20.972656 12 12 20.972656 12 32 C 12 43.027344 20.972656 52 32 52 C 43.027344 52 52 43.027344 52 32 C 52 20.972656 43.027344 12 32 12 Z M 32 12 "/>
</g>
</svg>
