<svg xmlns="http://www.w3.org/2000/svg" viewBox="0 0 70.48 69.09"><defs><style>.cls-1{fill:#b3cde6;}.cls-2,.cls-3{fill:#fff;}.cls-2{opacity:0.6;}</style></defs><title>Recurso 26</title><g id="Capa_2" data-name="Capa 2"><g id="Capa_2-2" data-name="Capa 2"><rect class="cls-1" width="70.48" height="69.09" rx="16.46"/><path class="cls-2" d="M22.18,54.5H13.52V26.76h8.66ZM17.63,23.28h-.07c-3.15,0-5.18-2.12-5.18-4.82s2.1-4.82,5.29-4.82,5.16,2.07,5.22,4.79S20.88,23.28,17.63,23.28ZM56.86,54.5H47V40.15c0-3.75-1.54-6.31-4.91-6.31a4.92,4.92,0,0,0-4.68,3.39,6.43,6.43,0,0,0-.2,2.27v15H27.49s.14-25.43,0-27.75h9.73v4.35c.58-1.89,3.69-4.62,8.66-4.62,6.16,0,11,4,11,12.59V54.5Z"/><path class="cls-3" d="M23.39,55.43H14.73V27.69h8.66ZM18.84,24.21h-.07c-3.15,0-5.18-2.12-5.18-4.82s2.1-4.82,5.29-4.82S24,16.64,24.1,19.36,22.09,24.21,18.84,24.21ZM58.07,55.43H48.25V41.08c0-3.75-1.54-6.32-4.91-6.32a4.92,4.92,0,0,0-4.68,3.4,6.41,6.41,0,0,0-.21,2.27v15H28.7s.13-25.43,0-27.75h9.73v4.35c.58-1.89,3.68-4.62,8.66-4.62,6.16,0,11,4,11,12.59v15.4Z"/></g></g></svg>